<svg width="3" height="4" viewBox="0 0 3 4" fill="none" xmlns="http://www.w3.org/2000/svg">
<path d="M1.34417 0.937199C1.34991 0.902304 1.40009 0.902304 1.40583 0.937198L1.4529 1.22292C1.52257 1.64591 1.85409 1.97743 2.27708 2.0471L2.5628 2.09417C2.5977 2.09991 2.5977 2.15009 2.5628 2.15583L2.27708 2.2029C1.85409 2.27257 1.52257 2.60409 1.4529 3.02708L1.40583 3.3128C1.40009 3.3477 1.34991 3.3477 1.34417 3.3128L1.2971 3.02708C1.22743 2.60409 0.895907 2.27257 0.472924 2.2029L0.187199 2.15583C0.152304 2.15009 0.152304 2.09991 0.187198 2.09417L0.472924 2.0471C0.895907 1.97743 1.22743 1.64591 1.2971 1.22292L1.34417 0.937199Z" fill="#ABB0BE"/>
</svg>
