<svg width="24" height="24" viewBox="0 0 24 24" fill="none" xmlns="http://www.w3.org/2000/svg">
<path d="M19.8867 12.5308L21.2424 13.739C21.4927 13.9527 21.6589 14.2443 21.7125 14.5641C21.7662 14.884 21.7039 15.212 21.5365 15.492L19.9011 18.2856C19.7752 18.4979 19.5943 18.674 19.3765 18.7965C19.1587 18.9192 18.9117 18.9839 18.6601 18.984C18.5041 18.9852 18.3492 18.9617 18.201 18.9143L16.4652 18.3416C16.1617 18.5363 15.8454 18.7113 15.5182 18.8654L15.1524 20.6253C15.0868 20.9469 14.9072 21.2357 14.6449 21.4413C14.3826 21.6468 14.0545 21.756 13.7178 21.7497H10.3321C9.99546 21.756 9.66729 21.6468 9.405 21.4413C9.14272 21.2357 8.96307 20.9469 8.89747 20.6253L8.53164 18.8654C8.20683 18.7112 7.89289 18.5363 7.59196 18.3416L5.84889 18.9143C5.70078 18.9617 5.54571 18.9852 5.3898 18.984C5.13822 18.9839 4.89114 18.9192 4.67332 18.7965C4.45551 18.674 4.27464 18.4979 4.14885 18.2856L2.45599 15.492C2.28088 15.2093 2.21436 14.8752 2.26819 14.5491C2.32203 14.2231 2.49276 13.9262 2.75008 13.7111L4.10581 12V11.4692L2.75008 10.261C2.49984 10.0473 2.33365 9.75566 2.28 9.43586C2.22634 9.11604 2.28856 8.78802 2.45599 8.50797L4.14885 5.71436C4.27464 5.50221 4.45551 5.32602 4.67332 5.20344C4.89114 5.08086 5.13822 5.0162 5.3898 5.01594C5.54415 5.00573 5.69917 5.01987 5.84889 5.05785L7.5561 5.65848C7.85949 5.46372 8.17581 5.28875 8.50294 5.13467L8.86878 3.37469C8.93437 3.05315 9.11403 2.76431 9.37632 2.55875C9.63859 2.35317 9.96676 2.24397 10.3034 2.25026H13.6604C13.9971 2.24397 14.3253 2.35317 14.5875 2.55875C14.8498 2.76431 15.0294 3.05315 15.0951 3.37469L15.4609 5.13467C15.7857 5.28878 16.0996 5.46377 16.4005 5.65848L18.1437 5.08578C18.2917 5.03837 18.4468 5.01479 18.6027 5.01594C18.8542 5.0162 19.1014 5.08086 19.3192 5.20344C19.537 5.32602 19.7179 5.50221 19.8436 5.71436L21.5365 8.50797C21.7141 8.78844 21.7842 9.12102 21.7344 9.44691C21.6844 9.7728 21.5178 10.071 21.264 10.2889L19.8867 11.4622V12.5308Z" stroke="white" stroke-width="1.5"/>
<path d="M15.75 12C15.75 14.0711 14.0711 15.75 12 15.75C9.92893 15.75 8.25 14.0711 8.25 12C8.25 9.92893 9.92893 8.25 12 8.25C14.0711 8.25 15.75 9.92893 15.75 12Z" stroke="white" stroke-width="1.5"/>
</svg>
