<svg width="24" height="24" viewBox="0 0 24 24" fill="none" xmlns="http://www.w3.org/2000/svg">
<path d="M12 20.8751C17.3849 20.8751 21.75 16.8735 21.75 11.9375C21.75 7.00146 17.3849 3 12 3C6.61523 3 2.25 7.00146 2.25 11.9375C2.25 14.0744 3.06813 16.0362 4.43295 17.574C5.05149 18.2709 5.536 19.1651 5.22892 20.0448C5.03029 20.6139 4.72904 21.1349 4.34711 21.5856C4.51611 21.6159 4.6875 21.6396 4.86048 21.6564C5.07073 21.677 5.28419 21.6875 5.50001 21.6875C6.88884 21.6875 8.17601 21.2519 9.23228 20.5098C10.1097 20.7474 11.0386 20.8751 12 20.8751Z" stroke="white" stroke-width="1.5" stroke-linecap="round" stroke-linejoin="round"/>
</svg>
