<svg width="24" height="24" viewBox="0 0 24 24" fill="none" xmlns="http://www.w3.org/2000/svg">
<path d="M21.75 12C21.75 17.3849 17.3849 21.75 12 21.75M21.75 12C21.75 6.61523 17.3849 2.25 12 2.25M21.75 12C21.75 14.4853 17.3849 16.5 12 16.5C6.61523 16.5 2.25 14.4853 2.25 12M21.75 12C21.75 9.51473 17.3849 7.5 12 7.5C6.61523 7.5 2.25 9.51473 2.25 12M12 21.75C6.61523 21.75 2.25 17.3849 2.25 12M12 21.75C14.4853 21.75 16.5 17.3849 16.5 12C16.5 6.61523 14.4853 2.25 12 2.25M12 21.75C9.51473 21.75 7.5 17.3849 7.5 12C7.5 6.61523 9.51473 2.25 12 2.25M12 2.25C6.61523 2.25 2.25 6.61523 2.25 12" stroke="white" stroke-width="1.5"/>
</svg>
