<svg width="24" height="24" viewBox="0 0 24 24" fill="none" xmlns="http://www.w3.org/2000/svg">
<path d="M11.9999 20.25V12.75M11.9999 12.75C11.9999 9.04652 12.96 6.30651 13.3846 5.44706C14.7692 2.64411 18.2307 3.34485 18.2307 4.74633C18.2307 6.84857 13.3846 8.25003 13.3846 8.25003L16.5 8.25005L20.25 8.25003V12.75H18.8653M11.9999 12.75C11.9999 9.04652 11.0399 6.30651 10.6153 5.44706C9.20571 2.59344 5.76918 3.34485 5.76918 4.74633C5.76918 7.54931 10.6153 8.25003 10.6153 8.25003L7.49994 8.25005H3.75V12.75H5.25M18.8653 12.75V20.25H5.25V12.75M18.8653 12.75C13.6591 12.75 10.9035 12.75 5.25 12.75" stroke="white" stroke-width="1.5" stroke-linejoin="round"/>
</svg>
