<svg width="17" height="15" viewBox="0 0 17 15" fill="none" xmlns="http://www.w3.org/2000/svg">
<path d="M7.71053 0.983144C7.25271 0.983144 6.88158 0.616147 6.88158 0.163434C6.88158 0.143872 6.86383 0.128664 6.84465 0.132526C3.08162 0.890446 0.25 4.18139 0.25 8.12633C0.25 8.51337 0.277258 8.89411 0.329975 9.26679C0.334925 9.30178 0.385056 9.30219 0.391642 9.26747C0.650736 7.90143 1.25414 6.65542 2.10934 5.6209C2.12215 5.60541 2.14604 5.60598 2.15817 5.622L6.88742 11.8657C6.90973 11.8951 6.95568 11.8683 6.94101 11.8344L3.64389 4.21508C3.63807 4.20163 3.64237 4.18594 3.65427 4.17739C5.01481 3.1994 6.68928 2.62256 8.5 2.62256C10.2988 2.62256 11.9632 3.19184 13.3189 4.15815C13.3312 4.16691 13.3354 4.18322 13.3289 4.19687L8.25469 14.9245C8.23835 14.9591 8.28642 14.9871 8.30847 14.9559L14.8732 5.6618C14.8851 5.64497 14.9097 5.64404 14.9228 5.66001C15.761 6.68676 16.3525 7.9186 16.6084 9.26747C16.6149 9.30219 16.6651 9.30178 16.67 9.26679C16.7227 8.89411 16.75 8.51337 16.75 8.12633C16.75 4.18139 13.9184 0.890447 10.1553 0.132526C10.1362 0.128664 10.1184 0.143872 10.1184 0.163434C10.1184 0.616147 9.74729 0.983144 9.28947 0.983144C8.95443 0.983144 8.66582 0.786592 8.53511 0.503733C8.52241 0.47624 8.47759 0.47624 8.46489 0.503733C8.33418 0.786592 8.04557 0.983144 7.71053 0.983144Z" fill="#ABB0BE"/>
</svg>
